<svg width="206" height="206" viewBox="0 0 206 206" fill="none" xmlns="http://www.w3.org/2000/svg">
<path opacity="0.2" d="M141.922 187.133C144.311 192.296 142.073 198.471 136.698 200.332C119.706 206.215 101.462 207.547 83.7959 204.194C78.2071 203.133 75.0966 197.349 76.7099 191.894C78.3232 186.439 84.0517 183.393 89.6652 184.314C102.485 186.417 115.625 185.457 128.004 181.515C133.424 179.789 139.534 181.97 141.922 187.133Z" fill="#5E5CE6"/>
<path d="M74.3541 191.163C72.5963 196.573 66.7582 199.581 61.5506 197.292C50.3237 192.357 40.0422 185.444 31.2087 176.858C19.9072 165.873 11.2774 152.441 5.98376 137.595C0.690078 122.75 -1.12626 106.889 0.674579 91.2311C2.47542 75.5736 7.84541 60.5382 16.3711 47.2826C24.8968 34.0269 36.3507 22.9046 49.851 14.7719C63.3514 6.63929 78.538 1.71323 94.2416 0.373053C109.945 -0.967127 125.747 1.31432 140.43 7.04174C151.907 11.5184 162.461 18.007 171.608 26.1758C175.851 29.9649 175.535 36.5247 171.341 40.3681C167.148 44.2115 160.669 43.8696 156.333 40.1878C149.383 34.2866 141.483 29.564 132.944 26.2334C121.198 21.6515 108.556 19.8263 95.9933 20.8984C83.4304 21.9706 71.2811 25.9114 60.4808 32.4176C49.6806 38.9237 40.5174 47.8215 33.6969 58.4261C26.8763 69.0306 22.5803 81.0589 21.1397 93.5848C19.699 106.111 21.1521 118.8 25.387 130.676C29.6219 142.552 36.5258 153.298 45.567 162.086C52.139 168.475 59.7128 173.704 67.9652 177.581C73.1139 180 76.112 185.753 74.3541 191.163Z" fill="#3F46F7"/>
<path opacity="0.5" d="M173.149 42.3993C177.453 38.6805 184.005 39.1292 187.276 43.7836C194.296 53.7751 199.5 64.9589 202.618 76.8223C206.61 92.0143 207.075 107.918 203.976 123.317C200.878 138.717 194.298 153.203 184.741 165.669C177.278 175.403 168.153 183.704 157.815 190.203C152.999 193.23 146.783 191.11 144.252 186.016C141.72 180.921 143.843 174.791 148.582 171.644C156.143 166.624 162.842 160.375 168.393 153.135C176.039 143.163 181.302 131.573 183.781 119.254C186.26 106.935 185.888 94.2115 182.694 82.0578C180.376 73.2345 176.614 64.8811 171.584 57.3271C168.431 52.5923 168.844 46.118 173.149 42.3993Z" fill="#5E5CE6"/>
<g clip-path="url(#clip0_531_217)">
<path d="M90.7055 95.57H81.3455V99.71C81.7455 99.27 82.3055 98.91 83.0255 98.63C83.7455 98.35 84.5255 98.21 85.3655 98.21C86.8655 98.21 88.1055 98.55 89.0855 99.23C90.0855 99.91 90.8155 100.79 91.2755 101.87C91.7355 102.95 91.9655 104.12 91.9655 105.38C91.9655 107.72 91.3055 109.58 89.9855 110.96C88.6655 112.32 86.8055 113 84.4055 113C82.8055 113 81.4155 112.73 80.2355 112.19C79.0555 111.63 78.1455 110.86 77.5055 109.88C76.8655 108.9 76.5155 107.77 76.4555 106.49H81.4655C81.5855 107.11 81.8755 107.63 82.3355 108.05C82.7955 108.45 83.4255 108.65 84.2255 108.65C85.1655 108.65 85.8655 108.35 86.3255 107.75C86.7855 107.15 87.0155 106.35 87.0155 105.35C87.0155 104.37 86.7755 103.62 86.2955 103.1C85.8155 102.58 85.1155 102.32 84.1955 102.32C83.5155 102.32 82.9555 102.49 82.5155 102.83C82.0755 103.15 81.7855 103.58 81.6455 104.12H76.6955V91.07H90.7055V95.57ZM98.3973 101.24C96.5173 100.24 95.5773 98.67 95.5773 96.53C95.5773 95.45 95.8573 94.47 96.4173 93.59C96.9773 92.69 97.8273 91.98 98.9673 91.46C100.107 90.92 101.507 90.65 103.167 90.65C104.827 90.65 106.217 90.92 107.337 91.46C108.477 91.98 109.327 92.69 109.887 93.59C110.447 94.47 110.727 95.45 110.727 96.53C110.727 97.61 110.467 98.55 109.947 99.35C109.447 100.15 108.767 100.78 107.907 101.24C108.987 101.76 109.817 102.48 110.397 103.4C110.977 104.3 111.267 105.36 111.267 106.58C111.267 108 110.907 109.23 110.187 110.27C109.467 111.29 108.487 112.07 107.247 112.61C106.027 113.15 104.667 113.42 103.167 113.42C101.667 113.42 100.297 113.15 99.0573 112.61C97.8373 112.07 96.8673 111.29 96.1473 110.27C95.4273 109.23 95.0673 108 95.0673 106.58C95.0673 105.34 95.3573 104.27 95.9373 103.37C96.5173 102.45 97.3373 101.74 98.3973 101.24ZM105.747 97.31C105.747 96.49 105.507 95.86 105.027 95.42C104.567 94.96 103.947 94.73 103.167 94.73C102.387 94.73 101.757 94.96 101.277 95.42C100.817 95.88 100.587 96.52 100.587 97.34C100.587 98.12 100.827 98.74 101.307 99.2C101.787 99.64 102.407 99.86 103.167 99.86C103.927 99.86 104.547 99.63 105.027 99.17C105.507 98.71 105.747 98.09 105.747 97.31ZM103.167 103.46C102.227 103.46 101.467 103.72 100.887 104.24C100.307 104.74 100.017 105.44 100.017 106.34C100.017 107.18 100.297 107.87 100.857 108.41C101.437 108.95 102.207 109.22 103.167 109.22C104.127 109.22 104.877 108.95 105.417 108.41C105.977 107.87 106.257 107.18 106.257 106.34C106.257 105.46 105.967 104.76 105.387 104.24C104.827 103.72 104.087 103.46 103.167 103.46ZM114.43 97.28C114.51 95.14 115.21 93.49 116.53 92.33C117.85 91.17 119.64 90.59 121.9 90.59C123.4 90.59 124.68 90.85 125.74 91.37C126.82 91.89 127.63 92.6 128.17 93.5C128.73 94.4 129.01 95.41 129.01 96.53C129.01 97.85 128.68 98.93 128.02 99.77C127.36 100.59 126.59 101.15 125.71 101.45V101.57C126.85 101.95 127.75 102.58 128.41 103.46C129.07 104.34 129.4 105.47 129.4 106.85C129.4 108.09 129.11 109.19 128.53 110.15C127.97 111.09 127.14 111.83 126.04 112.37C124.96 112.91 123.67 113.18 122.17 113.18C119.77 113.18 117.85 112.59 116.41 111.41C114.99 110.23 114.24 108.45 114.16 106.07H119.14C119.16 106.95 119.41 107.65 119.89 108.17C120.37 108.67 121.07 108.92 121.99 108.92C122.77 108.92 123.37 108.7 123.79 108.26C124.23 107.8 124.45 107.2 124.45 106.46C124.45 105.5 124.14 104.81 123.52 104.39C122.92 103.95 121.95 103.73 120.61 103.73H119.65V99.56H120.61C121.63 99.56 122.45 99.39 123.07 99.05C123.71 98.69 124.03 98.06 124.03 97.16C124.03 96.44 123.83 95.88 123.43 95.48C123.03 95.08 122.48 94.88 121.78 94.88C121.02 94.88 120.45 95.11 120.07 95.57C119.71 96.03 119.5 96.6 119.44 97.28H114.43Z" fill="white"/>
<path d="M83.9927 146.816H87.8967V148H82.5367V136.848H83.9927V146.816ZM88.8989 143.584C88.8989 142.688 89.0803 141.904 89.4429 141.232C89.8056 140.549 90.3016 140.021 90.9309 139.648C91.5709 139.275 92.2803 139.088 93.0589 139.088C93.8269 139.088 94.4936 139.253 95.0589 139.584C95.6243 139.915 96.0456 140.331 96.3229 140.832V139.232H97.7949V148H96.3229V146.368C96.0349 146.88 95.6029 147.307 95.0269 147.648C94.4616 147.979 93.8003 148.144 93.0429 148.144C92.2643 148.144 91.5603 147.952 90.9309 147.568C90.3016 147.184 89.8056 146.645 89.4429 145.952C89.0803 145.259 88.8989 144.469 88.8989 143.584ZM96.3229 143.6C96.3229 142.939 96.1896 142.363 95.9229 141.872C95.6563 141.381 95.2936 141.008 94.8349 140.752C94.3869 140.485 93.8909 140.352 93.3469 140.352C92.8029 140.352 92.3069 140.48 91.8589 140.736C91.4109 140.992 91.0536 141.365 90.7869 141.856C90.5203 142.347 90.3869 142.923 90.3869 143.584C90.3869 144.256 90.5203 144.843 90.7869 145.344C91.0536 145.835 91.4109 146.213 91.8589 146.48C92.3069 146.736 92.8029 146.864 93.3469 146.864C93.8909 146.864 94.3869 146.736 94.8349 146.48C95.2936 146.213 95.6563 145.835 95.9229 145.344C96.1896 144.843 96.3229 144.261 96.3229 143.6ZM101.711 140.864C102.01 140.341 102.447 139.915 103.023 139.584C103.599 139.253 104.255 139.088 104.991 139.088C105.781 139.088 106.49 139.275 107.119 139.648C107.749 140.021 108.245 140.549 108.607 141.232C108.97 141.904 109.151 142.688 109.151 143.584C109.151 144.469 108.97 145.259 108.607 145.952C108.245 146.645 107.743 147.184 107.103 147.568C106.474 147.952 105.77 148.144 104.991 148.144C104.234 148.144 103.567 147.979 102.991 147.648C102.426 147.317 101.999 146.896 101.711 146.384V148H100.255V136.16H101.711V140.864ZM107.663 143.584C107.663 142.923 107.53 142.347 107.263 141.856C106.997 141.365 106.634 140.992 106.175 140.736C105.727 140.48 105.231 140.352 104.687 140.352C104.154 140.352 103.658 140.485 103.199 140.752C102.751 141.008 102.389 141.387 102.111 141.888C101.845 142.379 101.711 142.949 101.711 143.6C101.711 144.261 101.845 144.843 102.111 145.344C102.389 145.835 102.751 146.213 103.199 146.48C103.658 146.736 104.154 146.864 104.687 146.864C105.231 146.864 105.727 146.736 106.175 146.48C106.634 146.213 106.997 145.835 107.263 145.344C107.53 144.843 107.663 144.256 107.663 143.584ZM119.068 143.28C119.068 143.557 119.052 143.851 119.02 144.16H112.012C112.065 145.024 112.359 145.701 112.892 146.192C113.436 146.672 114.092 146.912 114.86 146.912C115.489 146.912 116.012 146.768 116.428 146.48C116.855 146.181 117.153 145.787 117.324 145.296H118.892C118.657 146.139 118.188 146.827 117.484 147.36C116.78 147.883 115.905 148.144 114.86 148.144C114.028 148.144 113.281 147.957 112.62 147.584C111.969 147.211 111.457 146.683 111.084 146C110.711 145.307 110.524 144.507 110.524 143.6C110.524 142.693 110.705 141.899 111.068 141.216C111.431 140.533 111.937 140.011 112.588 139.648C113.249 139.275 114.007 139.088 114.86 139.088C115.692 139.088 116.428 139.269 117.068 139.632C117.708 139.995 118.199 140.496 118.54 141.136C118.892 141.765 119.068 142.48 119.068 143.28ZM117.564 142.976C117.564 142.421 117.441 141.947 117.196 141.552C116.951 141.147 116.615 140.843 116.188 140.64C115.772 140.427 115.308 140.32 114.796 140.32C114.06 140.32 113.431 140.555 112.908 141.024C112.396 141.493 112.103 142.144 112.028 142.976H117.564ZM122.446 136.16V148H120.99V136.16H122.446Z" fill="#EBEBF5" fill-opacity="0.3"/>
</g>
<defs>
<clipPath id="clip0_531_217">
<rect width="58" height="75" fill="white" transform="translate(73.5 79)"/>
</clipPath>
</defs>
</svg>
